<?xml version="1.0" encoding="UTF-8" standalone="no"?>
<svg
   width="420mm"
   height="297mm"
   viewBox="0 0 4200 2970"
   version="1.2"
   id="svg37"
   sodipodi:docname="Laser10mmFront.svg"
   inkscape:version="1.3 (0e150ed6c4, 2023-07-21)"
   xmlns:inkscape="http://www.inkscape.org/namespaces/inkscape"
   xmlns:sodipodi="http://sodipodi.sourceforge.net/DTD/sodipodi-0.dtd"
   xmlns="http://www.w3.org/2000/svg"
   xmlns:svg="http://www.w3.org/2000/svg">
  <sodipodi:namedview
     id="namedview37"
     pagecolor="#505050"
     bordercolor="#eeeeee"
     borderopacity="1"
     inkscape:showpageshadow="0"
     inkscape:pageopacity="0"
     inkscape:pagecheckerboard="0"
     inkscape:deskcolor="#505050"
     inkscape:document-units="mm"
     inkscape:zoom="0.5953125"
     inkscape:cx="793.70079"
     inkscape:cy="561.88976"
     inkscape:window-width="1920"
     inkscape:window-height="1017"
     inkscape:window-x="1912"
     inkscape:window-y="-8"
     inkscape:window-maximized="1"
     inkscape:current-layer="Page002" />
  <title
     id="title1">FreeCAD SVG Export</title>
  <desc
     id="desc1">Drawing page: Page002 exported from FreeCAD document: BoiteUtilitaireGrid</desc>
  <defs
     id="defs1" />
  <g
     inkscape:groupmode="layer"
     id="Page002"
     inkscape:label="TechDraw">
    <path
       id="path36"
       style="font-style:normal;font-weight:400;font-size:29.1042px;font-family:'MS Shell Dlg 2';fill:none;stroke:#000000;stroke-width:2;stroke-linecap:round;stroke-linejoin:bevel;stroke-opacity:1"
       d="m 2400,2340 v 100 m 600,-100 h -600 m 0,100 h 600 m 0,0 v -100 m -1800,0 v 100 m 600,-100 h -600 m 0,100 h 600 m 0,0 v -100 m -1450,-880 30,30 m 0,0 h 70 M 350,920 v 540 m 100,30 v 940 M 380,890 350,920 m 100,1510 c 0,55.23 44.77,100 100,100 M 450,890 H 380 M 550,2530 H 3650 M 450,540 v 350 m 3200,1640 c 55.23,0 100,-44.77 100,-100 M 550,440 c -55.23,0 -100,44.77 -100,100 M 3750,2430 V 1490 M 1529.979,440 H 550 m 3270,1050 h -70 M 1623.949,505.798 C 1609.57,466.29 1572.019,440 1529.979,440 M 3820,1490 l 30,-30 M 1623.949,505.798 1667.044,624.202 M 3850,920 v 540 M 1761.013,690 c -42.04,0 -79.59,-26.293 -93.969,-65.798 M 3820,890 l 30,30 M 1761.013,690 h 677.974 M 3750,890 h 70 M 2532.956,624.202 C 2518.577,663.707 2481.027,690 2438.987,690 M 3750,890 V 540 m -1217.044,84.202 43.095,-118.404 M 3750,540 c 0,-55.23 -44.77,-100 -100,-100 m -979.979,0 c -42.04,0 -79.591,26.29 -93.97,65.798 M 3650,440 h -979.979" />
  </g>
</svg>
