<?xml version='1.0' encoding='UTF-8' standalone='no'?>
<svg xmlns:xlink="http://www.w3.org/1999/xlink" height="210mm" baseProfile="tiny" xmlns:dc="http://purl.org/dc/elements/1.1/" xmlns="http://www.w3.org/2000/svg" viewBox="0 0 2970 2100" xmlns:cc="http://creativecommons.org/ns#" xmlns:inkscape="http://www.inkscape.org/namespaces/inkscape" version="1.2" xmlns:svg="http://www.w3.org/2000/svg" xmlns:sodipodi="http://sodipodi.sourceforge.net/DTD/sodipodi-0.dtd" xmlns:rdf="http://www.w3.org/1999/02/22-rdf-syntax-ns#" width="297mm" xmlns:freecad="http://www.freecad.org/wiki/index.php?title=Svg_Namespace">
 <title>FreeCAD SVG Export</title>
 <desc>Drawing page: Page001 exported from FreeCAD document: GridfinityBatteryDock</desc>
 <defs/>
 <g inkscape:groupmode="layer" inkscape:label="TechDraw" id="Page001">
  <g transform="scale(10.000000, 10.000000)" id="A4_Landscape_blank.svg" style="stroke: none;">
   <metadata id="metadata8">
    <rdf:RDF>
     <cc:Work rdf:about="">
      <dc:format>image/svg+xml</dc:format>
      <dc:type rdf:resource="http://purl.org/dc/dcmitype/StillImage"/>
     </cc:Work>
    </rdf:RDF>
   </metadata>
   <defs id="defs6"/>
  </g>
  <g stroke-linecap="square" fill="none" stroke-linejoin="bevel" stroke="black" fill-rule="evenodd" id="DrawingContent" stroke-width="1">
   <g stroke-linecap="square" fill="none" stroke-linejoin="bevel" font-size="29.1042" font-family="MS Shell Dlg 2" stroke-dashoffset="0" font-weight="400" stroke="#000000" stroke-dasharray="4,2" transform="matrix(1,0,0,1,384.516,263.022)" stroke-opacity="1" stroke-width="1" font-style="normal">
    <rect x="0" height="0" vector-effect="non-scaling-stroke" y="0" width="0"/>
   </g>
   <g stroke-linecap="round" fill="none" stroke-linejoin="bevel" font-size="29.1042" font-family="MS Shell Dlg 2" font-weight="400" stroke="#000000" transform="matrix(1,0,0,1,384.516,263.022)" stroke-opacity="1" stroke-width="2" font-style="normal">
    <path vector-effect="none" d="M-365,195 L-365,-235" fill-rule="evenodd"/>
   </g>
   <g stroke-linecap="round" fill="none" stroke-linejoin="bevel" font-size="29.1042" font-family="MS Shell Dlg 2" font-weight="400" stroke="#000000" transform="matrix(1,0,0,1,384.516,263.022)" stroke-opacity="1" stroke-width="2" font-style="normal">
    <path vector-effect="none" d="M-365,-235 L-355,-245" fill-rule="evenodd"/>
   </g>
   <g stroke-linecap="round" fill="none" stroke-linejoin="bevel" font-size="29.1042" font-family="MS Shell Dlg 2" font-weight="400" stroke="#000000" transform="matrix(1,0,0,1,384.516,263.022)" stroke-opacity="1" stroke-width="2" font-style="normal">
    <path vector-effect="none" d="M-365,195 C-365,222.614 -342.614,245 -315,245 " fill-rule="evenodd"/>
   </g>
   <g stroke-linecap="round" fill="none" stroke-linejoin="bevel" font-size="29.1042" font-family="MS Shell Dlg 2" font-weight="400" stroke="#000000" transform="matrix(1,0,0,1,384.516,263.022)" stroke-opacity="1" stroke-width="2" font-style="normal">
    <path vector-effect="none" d="M-355,-245 L355,-245" fill-rule="evenodd"/>
   </g>
   <g stroke-linecap="round" fill="none" stroke-linejoin="bevel" font-size="29.1042" font-family="MS Shell Dlg 2" font-weight="400" stroke="#000000" transform="matrix(1,0,0,1,384.516,263.022)" stroke-opacity="1" stroke-width="2" font-style="normal">
    <path vector-effect="none" d="M315,245 L-315,245" fill-rule="evenodd"/>
   </g>
   <g stroke-linecap="round" fill="none" stroke-linejoin="bevel" font-size="29.1042" font-family="MS Shell Dlg 2" font-weight="400" stroke="#000000" transform="matrix(1,0,0,1,384.516,263.022)" stroke-opacity="1" stroke-width="2" font-style="normal">
    <path vector-effect="none" d="M355,-245 L365,-235" fill-rule="evenodd"/>
   </g>
   <g stroke-linecap="round" fill="none" stroke-linejoin="bevel" font-size="29.1042" font-family="MS Shell Dlg 2" font-weight="400" stroke="#000000" transform="matrix(1,0,0,1,384.516,263.022)" stroke-opacity="1" stroke-width="2" font-style="normal">
    <path vector-effect="none" d="M365,195 C365,222.614 342.614,245 315,245 " fill-rule="evenodd"/>
   </g>
   <g stroke-linecap="round" fill="none" stroke-linejoin="bevel" font-size="29.1042" font-family="MS Shell Dlg 2" font-weight="400" stroke="#000000" transform="matrix(1,0,0,1,384.516,263.022)" stroke-opacity="1" stroke-width="2" font-style="normal">
    <path vector-effect="none" d="M365,-235 L365,195" fill-rule="evenodd"/>
   </g>
   <g stroke-linecap="round" fill="none" stroke-linejoin="bevel" font-size="29.1042" font-family="MS Shell Dlg 2" font-weight="400" stroke="#000000" transform="matrix(1,0,0,1,384.516,263.022)" stroke-opacity="1" stroke-width="2" font-style="normal">
    <path vector-effect="none" d="M-299,-45 C-299,-36.1634 -306.163,-29 -315,-29 C-323.837,-29 -331,-36.1634 -331,-45 C-331,-53.8366 -323.837,-61 -315,-61 C-306.163,-61 -299,-53.8366 -299,-45 " fill-rule="evenodd"/>
   </g>
   <g stroke-linecap="round" fill="none" stroke-linejoin="bevel" font-size="29.1042" font-family="MS Shell Dlg 2" font-weight="400" stroke="#000000" transform="matrix(1,0,0,1,384.516,263.022)" stroke-opacity="1" stroke-width="2" font-style="normal">
    <path vector-effect="none" d="M331,-45 C331,-36.1634 323.837,-29 315,-29 C306.163,-29 299,-36.1634 299,-45 C299,-53.8366 306.163,-61 315,-61 C323.837,-61 331,-53.8366 331,-45 " fill-rule="evenodd"/>
   </g>
   <g stroke-linecap="round" fill="none" stroke-linejoin="bevel" font-size="29.1042" font-family="MS Shell Dlg 2" font-weight="400" stroke="#000000" transform="matrix(1,0,0,1,384.516,263.022)" stroke-opacity="1" stroke-width="2" font-style="normal">
    <path vector-effect="none" d="M331,195 C331,203.837 323.837,211 315,211 C306.163,211 299,203.837 299,195 C299,186.163 306.163,179 315,179 C323.837,179 331,186.163 331,195 " fill-rule="evenodd"/>
   </g>
   <g stroke-linecap="round" fill="none" stroke-linejoin="bevel" font-size="29.1042" font-family="MS Shell Dlg 2" font-weight="400" stroke="#000000" transform="matrix(1,0,0,1,384.516,263.022)" stroke-opacity="1" stroke-width="2" font-style="normal">
    <path vector-effect="none" d="M-299,195 C-299,203.837 -306.163,211 -315,211 C-323.837,211 -331,203.837 -331,195 C-331,186.163 -323.837,179 -315,179 C-306.163,179 -299,186.163 -299,195 " fill-rule="evenodd"/>
   </g>
  </g>
 </g>
</svg>
