<?xml version="1.0" encoding="UTF-8" standalone="no"?>
<svg
   width="420mm"
   height="297mm"
   viewBox="0 0 4200 2970"
   version="1.2"
   id="svg65"
   sodipodi:docname="Laser10mm-Bottom.svg"
   inkscape:version="1.3 (0e150ed6c4, 2023-07-21)"
   xmlns:inkscape="http://www.inkscape.org/namespaces/inkscape"
   xmlns:sodipodi="http://sodipodi.sourceforge.net/DTD/sodipodi-0.dtd"
   xmlns="http://www.w3.org/2000/svg"
   xmlns:svg="http://www.w3.org/2000/svg">
  <sodipodi:namedview
     id="namedview65"
     pagecolor="#505050"
     bordercolor="#eeeeee"
     borderopacity="1"
     inkscape:showpageshadow="0"
     inkscape:pageopacity="0"
     inkscape:pagecheckerboard="0"
     inkscape:deskcolor="#505050"
     inkscape:document-units="mm"
     inkscape:zoom="0.70996528"
     inkscape:cx="793.70079"
     inkscape:cy="561.29506"
     inkscape:window-width="1920"
     inkscape:window-height="1017"
     inkscape:window-x="1912"
     inkscape:window-y="-8"
     inkscape:window-maximized="1"
     inkscape:current-layer="Page001" />
  <title
     id="title1">FreeCAD SVG Export</title>
  <desc
     id="desc1">Drawing page: Page001 exported from FreeCAD document: BoiteUtilitaireGrid</desc>
  <defs
     id="defs1" />
  <g
     inkscape:groupmode="layer"
     id="Page001"
     inkscape:label="TechDraw">
    <path
       id="path56"
       style="font-style:normal;font-weight:400;font-size:29.1042px;font-family:'MS Shell Dlg 2';fill:none;stroke:#000000;stroke-width:2;stroke-linecap:round;stroke-linejoin:bevel;stroke-opacity:1"
       d="m 3750,2385 h 70 m 30,-30 -30,30 m -70,200 v -200 m 100,-30 v -540 m -200,870 c 55.23,0 100,-44.77 100,-100 m 70,-800 30,30 m -850,870 h 650 m 170,-900 h -70 m -750,900 v 70 m 750,-970 v -600 m -750,1570 -30,30 m 780,-1600 h 70 m -850,1600 h -540 m 1420,-1630 -30,30 m -1420,1570 30,30 M 3850,1155 V 615 M 2400,2755 v -70 m 1420,-2100 30,30 M 1800,2685 h 600 M 3820,585 h -70 M 1800,2685 v 70 M 3750,585 V 385 m -1980,2400 30,-30 M 3750,385 c 0,-55.23 -44.77,-100 -100,-100 M 1770,2785 H 1230 M 3650,285 h -650 m -1800,2470 30,30 M 3000,285 V 215 M 1200,2755 v -70 m 1770,-2500 30,30 M 550,2685 h 650 M 2970,185 H 2430 M 450,2585 c 0,55.23 44.77,100 100,100 M 2400,215 2430,185 M 450,2385 v 200 M 2400,215 v 70 M 380,2385 h 70 M 2400,285 h -600 m -1450,2070 30,30 M 1800,285 V 215 M 350,1815 v 540 m 1420,-2170 30,30 M 380,1785 350,1815 M 1770,185 H 1230 M 450,1785 h -70 m 820,-1570 30,-30 M 450,1185 v 600 M 1200,215 v 70 m -820,900 h 70 M 1200,285 H 550 m -200,870 30,30 m 70,-800 c 0,-55.23 44.77,-100 100,-100 M 350,615 v 540 M 450,385 v 200 m -70,0 -30,30 m 100,-30 h -70" />
  </g>
</svg>
