<?xml version="1.0" encoding="UTF-8" standalone="no"?>
<svg
   width="420mm"
   height="297mm"
   viewBox="0 0 4200 2970"
   version="1.2"
   id="svg57"
   sodipodi:docname="Laser10mm-Side.svg"
   inkscape:version="1.3 (0e150ed6c4, 2023-07-21)"
   xmlns:inkscape="http://www.inkscape.org/namespaces/inkscape"
   xmlns:sodipodi="http://sodipodi.sourceforge.net/DTD/sodipodi-0.dtd"
   xmlns="http://www.w3.org/2000/svg"
   xmlns:svg="http://www.w3.org/2000/svg">
  <sodipodi:namedview
     id="namedview57"
     pagecolor="#505050"
     bordercolor="#eeeeee"
     borderopacity="1"
     inkscape:showpageshadow="0"
     inkscape:pageopacity="0"
     inkscape:pagecheckerboard="0"
     inkscape:deskcolor="#505050"
     inkscape:document-units="mm"
     inkscape:zoom="0.50202126"
     inkscape:cx="708.13734"
     inkscape:cy="626.46749"
     inkscape:window-width="1920"
     inkscape:window-height="1017"
     inkscape:window-x="1912"
     inkscape:window-y="-8"
     inkscape:window-maximized="1"
     inkscape:current-layer="Page" />
  <title
     id="title1">FreeCAD SVG Export</title>
  <desc
     id="desc1">Drawing page: Page exported from FreeCAD document: BoiteUtilitaireGrid</desc>
  <defs
     id="defs1" />
  <g
     inkscape:groupmode="layer"
     id="Page"
     inkscape:label="TechDraw">
    <path
       id="path56"
       style="font-style:normal;font-weight:400;font-size:29.1042px;font-family:'MS Shell Dlg 2';fill:none;stroke:#000000;stroke-width:2;stroke-linecap:round;stroke-linejoin:bevel;stroke-opacity:1"
       d="m 610.01,263.52 h 600 m -600,-100 v 100 m 600,0 v -100 m 0,0 h -600 m 1450,1000 h 100 m -100,-600 v 600 m 100,0 v -600 m 0,0 h -100 m -1250,1300 c 0,55.228 -44.772,100 -100,100 m 100,-100 v -800 m -400,900 h 300 m 0,-1000 c 55.228,0 100,44.772 100,100 m -400,900 c -55.228,0 -100,-44.772 -100,-100 m 400,-900 h -300 m -100,100 v 800 m 0,-800 c 0,-55.228 44.772,-100 100,-100 m 200,1800 h 600 m -600,-100 v 100 m 600,0 v -100 m 0,0 h -600 m 700,-1600 v 800 m 100,100 c -55.2285,0 -100,-44.772 -100,-100 m 100,100 h 300 m 100,-100 c 0,55.228 -44.772,100 -100,100 m 100,-100 v -800 m -100,-100 c 55.228,0 100,44.772 100,100 m -100,-100 h -300 m -100,100 c 0,-55.228 44.7715,-100 100,-100 m 650,1400 h 100 m -100,-600 v 600 m 100,0 v -600 m 0,0 h -100 m 200,-1243.582 v 1726.069 m 82.64,98.481 c -47.8,-8.427 -82.64,-49.952 -82.64,-98.481 m 65.8,-1820.037 c -39.51,14.38 -65.8,51.928 -65.8,93.968 m 82.64,1824.55 34.72,6.124 m 16.84,-1949.542 -68.4,24.9 m 134.2,2023.122 c 0,-48.529 -34.84,-90.053 -82.64,-98.48 M 2460.01,307.1 c 0,42.04 -26.29,79.59 -65.8,93.97 m 65.8,2362.45 v -314.428 m 0,-2141.992 V 163.52 m -100,2700 c 55.23,0 100,-44.77 100,-100 m -100,-2700 c 55.23,0 100,44.77 100,100 m -2100,2700 h 2000 m 0,-2800 h -2000 m -100,2700 c 0,55.23 44.772,100 100,100 m -100,-2700 c 0,-55.23 44.772,-100 100,-100 m -100,2385.572 v 314.428 m 0,-2600 V 307.1 m -82.64,2043.512 c 47.8,8.427 82.64,49.951 82.64,98.48 M 194.21,401.07 c 39.51,-14.38 65.8,-51.93 65.8,-93.97 m -117.36,2037.388 34.72,6.124 m 16.84,-1949.542 -68.4,24.9 m -65.8,1820.037 c 0,48.529 34.84,90.054 82.64,98.481 M 60.01,519.938 c 0,-42.04 26.29,-79.588 65.8,-93.968 m -65.8,93.968 v 1726.069" />
  </g>
</svg>
